<?xml version="1.0" encoding="UTF-8" standalone="no" ?>
<!DOCTYPE svg PUBLIC "-//W3C//DTD SVG 1.1//EN" "http://www.w3.org/Graphics/SVG/1.1/DTD/svg11.dtd">
<svg xmlns="http://www.w3.org/2000/svg" xmlns:xlink="http://www.w3.org/1999/xlink" version="1.1" width="1280" height="1024" viewBox="0 0 1280 1024" xml:space="preserve">
<desc>Created with Fabric.js 5.3.0</desc>
<defs>
</defs>
<g transform="matrix(1 0 0 1 640 512)" id="background-logo"  >
<rect style="stroke: none; stroke-width: 0; stroke-dasharray: none; stroke-linecap: butt; stroke-dashoffset: 0; stroke-linejoin: miter; stroke-miterlimit: 4; fill: rgb(255,255,255); fill-opacity: 0; fill-rule: nonzero; opacity: 1;"  paint-order="stroke"  x="-640" y="-512" rx="0" ry="0" width="1280" height="1024" />
</g>
<g transform="matrix(1.9211538461538462 0 0 1.9211538461538462 640 394.1211432354375)" id="logo-logo"  >
<g style=""  paint-order="stroke"   >
		<g transform="matrix(0.44374266756418884 0 0 0.44374266756418884 2.151723803579216 0)"  >
<path style="stroke: none; stroke-width: 1; stroke-dasharray: none; stroke-linecap: butt; stroke-dashoffset: 0; stroke-linejoin: miter; stroke-miterlimit: 4; fill: rgb(239,83,134); fill-rule: nonzero; opacity: 1;"  paint-order="stroke"  transform=" translate(-351.34903517480194, -370.84)" d="M 298.82 246.86 C 312.19 179.63 380.01 163.36 380.01 163.36 C 380.01 163.36 279.11 242.17000000000002 342.38 325.33000000000004 L 322.34 334.98 C 305.45 310.67 292.03 281.02000000000004 298.82 246.86 Z M 413.02 502.88 C 425.24 452.45 416.78999999999996 419.51 375.5 365.77 C 409.02 353.96999999999997 449.65999999999997 335.40999999999997 464.89 292.76 C 487.95 228.2 438.09999999999997 179.42 438.09999999999997 179.42 C 438.09999999999997 179.42 486.59999999999997 305.03999999999996 379.49999999999994 340.54999999999995 C 372.85999999999996 342.74999999999994 366.53999999999996 344.90999999999997 360.50999999999993 347.03999999999996 C 360.50999999999993 347.03999999999996 360.50999999999993 347.03999999999996 360.50999999999993 347.03999999999996 L 360.44999999999993 347.06999999999994 C 280.44999999999993 375.3399999999999 252.54999999999993 398.7699999999999 235.42999999999995 453.79999999999995 C 217.00999999999993 512.99 273.11999999999995 564.27 273.11999999999995 564.27 C 212.20999999999995 442.27 307.53 393.27 336.47999999999996 379.66999999999996 C 341.10999999999996 377.49999999999994 346.96999999999997 375.4 353.62999999999994 373.15 C 357.87999999999994 378.4 361.49999999999994 383.09999999999997 364.37999999999994 387.38 C 382.23999999999995 413.92 438.86999999999995 504.90999999999997 323.94999999999993 578.3199999999999 C 323.94999999999993 578.3199999999999 398.42999999999995 563.1299999999999 413.0199999999999 502.87999999999994 Z" stroke-linecap="round" />
</g>
		<g transform="matrix(0.44374266756418884 0 0 0.44374266756418884 4.115713241657829 0.3439005673622546)"  >
<path style="stroke: none; stroke-width: 1; stroke-dasharray: none; stroke-linecap: butt; stroke-dashoffset: 0; stroke-linejoin: miter; stroke-miterlimit: 4; fill: rgb(196,31,80); fill-rule: nonzero; opacity: 1;"  paint-order="stroke"  transform=" translate(-355.775, -371.615)" d="M 439.52 227.81 L 441.63 246.12 L 344.05 219.15 L 353.68 204.09 L 439.52 227.82 Z M 378.66 175.92 L 371.37 189.73999999999998 L 433.3 206.85999999999999 L 433.14 190.98 L 378.65999999999997 175.92 Z M 343.97 239.21 L 334.34000000000003 254.27 L 431.92 281.24 L 429.81 262.93 L 343.97 239.20000000000002 Z M 416.56 314.81 L 426.05 299.71 L 331.1 273.46999999999997 L 333.03000000000003 291.72999999999996 L 416.56000000000006 314.81999999999994 Z M 292.5 427.85 L 282.87 442.91 L 380.45 469.88 L 378.34 451.57 L 292.5 427.84 Z M 317.69 398.86 L 310.4 412.68 L 372.33 429.8 L 372.16999999999996 413.92 L 317.68999999999994 398.86 Z M 329.41 567.31 L 336.70000000000005 553.4899999999999 L 274.77000000000004 536.3699999999999 L 274.93000000000006 552.2499999999999 L 329.4100000000001 567.3099999999998 Z M 282.79 462.97 L 273.16 478.03000000000003 L 370.74 505 L 368.63 486.69 L 282.78999999999996 462.96 Z M 355.38 538.57 L 364.87 523.47 L 269.92 497.23 L 271.85 515.49 L 355.38 538.58 Z" stroke-linecap="round" />
</g>
		<g transform="matrix(0.44374266756418884 0 0 0.44374266756418884 3.91381032791611 3.503348360419295)"  >
<path style="stroke: none; stroke-width: 1; stroke-dasharray: none; stroke-linecap: butt; stroke-dashoffset: 0; stroke-linejoin: miter; stroke-miterlimit: 4; fill: rgb(100,193,234); fill-rule: nonzero; opacity: 1;"  paint-order="stroke"  transform=" translate(-355.31999999999994, -378.735)" d="M 269.65 253.34 L 251.96999999999997 253.34 L 251.96999999999997 235.66 C 251.96999999999997 232.82999999999998 249.67999999999998 230.53 246.83999999999997 230.53 L 243.29999999999998 230.53 C 240.46999999999997 230.53 238.17 232.83 238.17 235.66 L 238.17 253.34 L 220.48999999999998 253.34 C 217.65999999999997 253.34 215.35999999999999 255.64000000000001 215.35999999999999 258.47 L 215.35999999999999 262.01000000000005 C 215.35999999999999 264.84000000000003 217.66 267.14000000000004 220.48999999999998 267.14000000000004 L 238.17 267.14000000000004 L 238.17 284.82000000000005 C 238.17 287.65000000000003 240.47 289.95000000000005 243.29999999999998 289.95000000000005 L 246.83999999999997 289.95000000000005 C 249.67 289.95000000000005 251.96999999999997 287.66 251.96999999999997 284.82000000000005 L 251.96999999999997 267.14000000000004 L 269.65 267.14000000000004 C 272.47999999999996 267.14000000000004 274.78 264.85 274.78 262.01000000000005 L 274.78 258.47 C 274.78 255.64000000000001 272.48999999999995 253.34000000000003 269.65 253.34000000000003 Z M 490.15 490.33 L 472.46999999999997 490.33 L 472.46999999999997 472.65 C 472.46999999999997 469.82 470.17999999999995 467.52 467.34 467.52 L 463.79999999999995 467.52 C 460.96999999999997 467.52 458.66999999999996 469.82 458.66999999999996 472.65 L 458.66999999999996 490.33 L 440.98999999999995 490.33 C 438.15999999999997 490.33 435.85999999999996 492.63 435.85999999999996 495.46 L 435.85999999999996 499 C 435.85999999999996 501.83 438.15999999999997 504.13 440.98999999999995 504.13 L 458.66999999999996 504.13 L 458.66999999999996 521.81 C 458.66999999999996 524.64 460.96999999999997 526.9399999999999 463.79999999999995 526.9399999999999 L 467.34 526.9399999999999 C 470.16999999999996 526.9399999999999 472.46999999999997 524.65 472.46999999999997 521.81 L 472.46999999999997 504.12999999999994 L 490.15 504.12999999999994 C 492.97999999999996 504.12999999999994 495.28 501.8399999999999 495.28 498.99999999999994 L 495.28 495.4599999999999 C 495.28 492.62999999999994 492.98999999999995 490.3299999999999 490.15 490.3299999999999 Z" stroke-linecap="round" />
</g>
		<g transform="matrix(0.44374266756418884 0 0 0.44374266756418884 -2.722361265506322 0.9895461486681825)"  >
<path style="stroke: none; stroke-width: 1; stroke-dasharray: none; stroke-linecap: butt; stroke-dashoffset: 0; stroke-linejoin: miter; stroke-miterlimit: 4; fill: rgb(117,100,172); fill-rule: nonzero; opacity: 1;"  paint-order="stroke"  transform=" translate(-340.365, -373.07000000000005)" d="M 274.78 334.3 C 274.78 345.07 266.04999999999995 353.79 255.28999999999996 353.79 C 244.52999999999997 353.79 235.79999999999995 345.06 235.79999999999995 334.3 C 235.79999999999995 323.54 244.52999999999994 314.81 255.28999999999996 314.81 C 266.04999999999995 314.81 274.78 323.54 274.78 334.3 Z M 207.82 353.8 C 202.23999999999998 353.8 197.72 358.32 197.72 363.90000000000003 C 197.72 369.4800000000001 202.24 374.00000000000006 207.82 374.00000000000006 C 213.39999999999998 374.00000000000006 217.92 369.4800000000001 217.92 363.90000000000003 C 217.92 358.32 213.39999999999998 353.8 207.82 353.8 Z M 435.42 369.71 C 425.28000000000003 369.71 417.07 377.93 417.07 388.06 C 417.07 398.19 425.29 406.41 435.42 406.41 C 445.55 406.41 453.77000000000004 398.19 453.77000000000004 388.06 C 453.77000000000004 377.93 445.55 369.71 435.42 369.71 Z M 474.3 415.35 C 469.49 415.35 465.59000000000003 419.25 465.59000000000003 424.06 C 465.59000000000003 428.87 469.49 432.77 474.3 432.77 C 479.11 432.77 483.01 428.87 483.01 424.06 C 483.01 419.25 479.11 415.35 474.3 415.35 Z M 420.62 538.57 C 416.15 538.57 412.53000000000003 542.19 412.53000000000003 546.6600000000001 C 412.53000000000003 551.1300000000001 416.15000000000003 554.7500000000001 420.62 554.7500000000001 C 425.09 554.7500000000001 428.71 551.1300000000001 428.71 546.6600000000001 C 428.71 542.19 425.09 538.57 420.62 538.57 Z M 282.86 191.39 C 278.39 191.39 274.77000000000004 195.01 274.77000000000004 199.48 C 274.77000000000004 203.95 278.39000000000004 207.57 282.86 207.57 C 287.33 207.57 290.95 203.95 290.95 199.48 C 290.95 195.01 287.33 191.39 282.86 191.39 Z" stroke-linecap="round" />
</g>
</g>
</g>
<g transform="matrix(1.9211538461538462 0 0 1.9211538461538462 640.4217375752538 668.4517836876395)" id="text-logo"  >
<g style=""  paint-order="stroke"   >
		<g transform="matrix(1 0 0 1 0 0)" id="text-logo-path-0"  >
<path style="stroke: none; stroke-width: 0; stroke-dasharray: none; stroke-linecap: butt; stroke-dashoffset: 0; stroke-linejoin: miter; stroke-miterlimit: 4; fill: rgb(239,83,134); fill-rule: nonzero; opacity: 1;"  paint-order="stroke"  transform=" translate(-182.85917067310623, 21)" d="M 35.58 -28.2 C 36.78 -37.38 30.9 -42.48 21.66 -42.48 C 12.18 -42.48 4.26 -36.12 2.46 -25.2 L 1.08 -16.86 C -0.78 -5.88 5.04 0.48 14.52 0.48 C 24 0.48 31.8 -5.58 33.66 -16.44 L 34.44 -21.36 C 34.56 -21.9 34.38 -22.08 33.84 -22.08 L 18.84 -22.08 C 18.3 -22.08 18.12 -21.9 18 -21.36 L 16.92 -14.64 C 16.8 -14.1 16.98 -13.92 17.52 -13.92 L 22.56 -13.92 C 22.14 -11.4 19.98 -10.2 16.5 -10.2 C 12.84 -10.2 11.46 -12.18 12.36 -17.76 L 13.44 -24.3 C 14.4 -29.82 16.32 -31.8 19.8 -31.8 C 22.92 -31.8 24.3 -30.36 24.24 -28.2 C 24.24 -27.6 24.36 -27.48 24.9 -27.48 L 34.74 -27.48 C 35.28 -27.48 35.52 -27.66 35.58 -28.2 Z M 67.8 -38.28 C 67.26 -38.28 67.02 -38.1 66.78 -37.56 L 57.66 -16.8 L 56.58 -41.28 C 56.52 -41.82 56.34 -42 55.8 -42 L 47.28 -42 C 46.74 -42 46.56 -41.82 46.62 -41.28 L 48.42 -0.72 C 48.42 -0.18 48.66 0 49.2 0 L 58.92 0 C 59.46 0 59.7 -0.18 59.94 -0.72 L 66.96 -16.62 L 68.64 -0.72 C 68.64 -0.18 68.88 0 69.42 0 L 78.54 0 C 79.08 0 79.32 -0.18 79.56 -0.72 L 94.92 -41.28 C 95.1 -41.82 95.04 -42 94.5 -42 L 86.58 -42 C 86.04 -42 85.74 -41.82 85.56 -41.28 L 76.26 -16.8 L 74.04 -37.56 C 74.04 -38.1 73.8 -38.28 73.26 -38.28 Z M 115.08 -0.72 C 115.14 -0.24 115.38 0 115.86 0 L 125.58 0 C 126.06 0 126.3 -0.24 126.24 -0.72 L 122.04 -41.28 C 121.98 -41.76 121.74 -42 121.26 -42 L 109.14 -42 C 108.66 -42 108.3 -41.76 108.12 -41.28 L 90.36 -0.72 C 90.18 -0.24 90.3 0 90.78 0 L 100.5 0 C 100.98 0 101.34 -0.24 101.52 -0.72 L 104.1 -6.6 L 114.48 -6.6 Z M 108.72 -17.16 L 112.5 -25.74 L 113.34 -17.16 Z M 147.24 -12.72 C 147.36 -13.26 147.18 -13.44 146.64 -13.44 L 136.92 -13.44 C 136.38 -13.44 136.2 -13.26 136.08 -12.72 C 134.82 -3.6 138.96 0.48 148.14 0.48 C 156.42 0.48 163.08 -3.6 164.4 -11.64 C 166.74 -25.44 149.4 -25.74 150.3 -30.96 C 150.66 -33.12 151.86 -34.2 153.84 -34.2 C 155.94 -34.2 156.72 -33.12 156.24 -29.4 C 156.12 -28.86 156.3 -28.68 156.84 -28.68 L 166.56 -28.68 C 167.1 -28.68 167.28 -28.86 167.4 -29.4 C 168.66 -38.52 163.92 -42.48 155.28 -42.48 C 146.46 -42.48 140.34 -37.62 139.14 -30.42 C 136.92 -17.04 154.14 -17.04 153.24 -11.58 C 152.88 -9.48 151.68 -7.8 149.52 -7.8 C 147.54 -7.8 146.82 -9.24 147.24 -12.72 Z M 178.08 -29.4 C 177.96 -28.92 178.2 -28.68 178.68 -28.68 L 187.8 -28.68 C 188.28 -28.68 188.52 -28.92 188.64 -29.4 C 189.36 -33.24 190.44 -34.2 192 -34.2 C 193.68 -34.2 194.16 -33.24 193.74 -30.54 C 193.26 -27.78 191.82 -25.5 187.38 -22.68 C 179.04 -17.4 174.6 -12.72 173.16 -4.02 L 172.62 -0.72 C 172.56 -0.24 172.74 0 173.22 0 L 199.14 0 C 199.62 0 199.92 -0.24 199.98 -0.72 L 201.12 -7.44 C 201.18 -7.92 201 -8.16 200.52 -8.16 L 185.52 -8.16 C 186.48 -10.14 188.34 -11.82 192.9 -14.46 C 199.8 -18.48 203.22 -24 204.3 -30.54 C 205.62 -38.7 201.24 -42.48 193.5 -42.48 C 186.66 -42.48 179.82 -38.34 178.08 -29.4 Z M 232.02 -14.64 C 231.48 -14.64 231.24 -14.46 231.18 -13.92 C 230.34 -9.72 228.78 -7.8 226.26 -7.8 C 223.62 -7.8 222.84 -10.86 223.92 -17.28 L 225.18 -24.78 C 226.2 -31.14 228 -34.2 230.64 -34.2 C 233.16 -34.2 234.12 -32.34 233.52 -28.2 C 233.46 -27.66 233.58 -27.48 234.12 -27.48 L 243.84 -27.48 C 244.38 -27.48 244.62 -27.66 244.68 -28.2 C 245.94 -37.38 240.48 -42.48 232.02 -42.48 C 223.32 -42.48 216 -36.72 214.2 -25.8 L 212.58 -16.26 C 210.78 -5.28 216.18 0.48 224.88 0.48 C 233.34 0.48 240.48 -4.68 242.34 -13.92 C 242.4 -14.46 242.28 -14.64 241.74 -14.64 Z M 254.4 -26.4 L 252.6 -15.66 C 250.74 -4.38 256.2 0.48 265.98 0.48 C 275.76 0.48 282.78 -4.38 284.64 -15.66 L 286.44 -26.4 C 288.3 -37.62 282.9 -42.48 273.12 -42.48 C 263.34 -42.48 256.26 -37.62 254.4 -26.4 Z M 265.5 -26.1 C 266.46 -31.86 268.2 -33.6 271.62 -33.6 C 275.04 -33.6 276.18 -31.86 275.22 -26.1 L 273.54 -15.96 C 272.58 -10.14 270.84 -8.4 267.42 -8.4 C 264 -8.4 262.86 -10.14 263.82 -15.96 Z M 293.82 -14.34 C 293.28 -14.34 293.04 -14.16 292.98 -13.62 L 292.32 -9.72 C 291.18 -2.88 295.26 0.48 304.14 0.48 C 313.08 0.48 318.3 -3.42 319.62 -11.34 L 324.66 -41.28 C 324.72 -41.82 324.6 -42 324.06 -42 L 314.34 -42 C 313.8 -42 313.56 -41.82 313.5 -41.28 L 308.88 -13.62 C 308.28 -9.96 307.32 -7.8 305.52 -7.8 C 303.78 -7.8 303.36 -9.12 303.78 -11.4 L 304.14 -13.62 C 304.2 -14.16 304.08 -14.34 303.54 -14.34 Z M 332.58 -26.4 L 330.78 -15.66 C 328.92 -4.38 334.38 0.48 344.16 0.48 C 353.94 0.48 360.96 -4.38 362.82 -15.66 L 364.62 -26.4 C 366.48 -37.62 361.08 -42.48 351.3 -42.48 C 341.52 -42.48 334.44 -37.62 332.58 -26.4 Z M 343.68 -26.1 C 344.64 -31.86 346.38 -33.6 349.8 -33.6 C 353.22 -33.6 354.36 -31.86 353.4 -26.1 L 351.72 -15.96 C 350.76 -10.14 349.02 -8.4 345.6 -8.4 C 342.18 -8.4 341.04 -10.14 342 -15.96 Z" stroke-linecap="round" />
</g>
</g>
</g>
</svg>